<?xml version="1.0" standalone="no"?>
<!DOCTYPE svg PUBLIC "-//W3C//DTD SVG 20010904//EN"
 "http://www.w3.org/TR/2001/REC-SVG-20010904/DTD/svg10.dtd">
<svg version="1.0" xmlns="http://www.w3.org/2000/svg"
 width="260.000000pt" height="260.000000pt" viewBox="0 0 260.000000 260.000000"
 preserveAspectRatio="xMidYMid meet">
<metadata>
Created by potrace 1.14, written by Peter Selinger 2001-2017
</metadata>
<g transform="translate(0.000000,260.000000) scale(0.100000,-0.100000)"
fill="#000000" stroke="none">
<path d="M0 1300 l0 -1300 1300 0 1300 0 0 1300 0 1300 -1300 0 -1300 0 0
-1300z m312 648 l3 -123 93 123 93 122 84 0 c47 0 85 -3 85 -7 0 -5 -43 -64
-94 -131 l-95 -124 33 -51 c18 -29 63 -100 99 -159 l67 -108 -94 0 -94 0 -63
106 -63 107 -28 -34 c-25 -30 -28 -41 -28 -106 l0 -73 -75 0 -75 0 0 290 0
290 75 0 74 0 3 -122z m885 -158 c50 -151 92 -281 92 -288 1 -10 -19 -12 -81
-10 l-81 3 -17 50 -17 50 -95 3 -95 3 -15 -53 -15 -53 -86 -3 -86 -3 94 280
c51 154 96 285 100 291 4 7 42 10 108 8 l102 -3 92 -275z m563 215 l0 -65 -85
0 -85 0 0 -225 0 -225 -80 0 -80 0 0 225 0 225 -85 0 -85 0 0 58 c0 32 3 62 7
65 3 4 116 7 250 7 l243 0 0 -65z m465 -225 c52 -157 95 -286 95 -287 0 -2
-37 -3 -83 -3 l-83 0 -18 55 -17 55 -94 0 -94 0 -17 -55 -18 -55 -84 0 c-63 0
-83 3 -80 13 3 6 47 137 97 290 l93 278 105 -3 104 -3 94 -285z m-1913 -792
l3 -123 93 123 93 122 84 0 c47 0 85 -3 85 -7 0 -5 -43 -64 -94 -131 l-95
-124 33 -51 c18 -29 63 -100 99 -159 l67 -108 -94 0 -94 0 -63 106 -63 107
-28 -34 c-25 -30 -28 -41 -28 -106 l0 -73 -75 0 -75 0 0 290 0 290 75 0 74 0
3 -122z m784 94 c100 -52 149 -150 142 -286 -8 -142 -71 -226 -196 -262 -106
-31 -216 -1 -286 77 -53 58 -71 117 -70 219 2 124 47 200 147 251 57 28 68 30
142 27 55 -3 93 -11 121 -26z m412 16 c5 -7 38 -82 72 -166 35 -84 66 -149 70
-145 3 4 33 73 65 153 32 80 63 151 68 158 7 9 36 12 101 10 l91 -3 3 -287 2
-288 -80 0 -80 0 -2 162 -3 161 -61 -159 -61 -159 -48 0 -47 0 -61 160 -62
160 -3 -163 -2 -162 -80 0 -80 0 0 283 c0 156 3 287 7 290 12 13 180 8 191 -5z
m902 -15 c60 -27 81 -53 87 -106 7 -60 -17 -103 -70 -128 -23 -10 -36 -19 -29
-19 30 0 85 -35 103 -64 25 -40 25 -112 0 -152 -10 -17 -36 -42 -57 -55 -37
-23 -50 -24 -216 -27 l-178 -4 0 293 0 292 158 -5 c129 -4 165 -8 202 -25z"/>
<path d="M981 1858 c-6 -24 -17 -64 -25 -90 l-15 -48 58 0 59 0 -25 83 c-14
45 -29 86 -33 90 -4 5 -12 -11 -19 -35z"/>
<path d="M1996 1816 c-14 -46 -26 -87 -26 -90 0 -3 25 -6 55 -6 30 0 55 3 55
6 0 12 -51 174 -55 174 -2 0 -15 -38 -29 -84z"/>
<path d="M913 966 c-81 -36 -95 -219 -21 -281 35 -30 101 -34 137 -9 66 47 69
219 5 276 -28 24 -83 30 -121 14z"/>
<path d="M2210 925 l0 -55 43 0 c51 0 87 22 87 54 0 36 -30 56 -83 56 l-47 0
0 -55z"/>
<path d="M2210 721 l0 -61 59 0 c63 0 91 15 91 50 0 37 -32 61 -92 67 l-58 6
0 -62z"/>
</g>
</svg>
